<svg width="141" height="44" viewBox="0 0 141 44" fill="none" xmlns="http://www.w3.org/2000/svg">
<g filter="url(#filter0_d_1122_858)">
<rect x="4" width="133" height="36" rx="18" fill="#FF9900"/>
<path d="M106 12L113 17.5L106 23V12Z" fill="white"/>
<path d="M52.4062 22H50L46.377 16.9346V22H44.2578V12.0059H46.377V16.8457L49.959 12.0059H52.2148L48.5713 16.8047L52.4062 22ZM52.529 14.3574H54.8122L56.2546 18.6572C56.3002 18.7939 56.3389 18.9329 56.3708 19.0742C56.4027 19.2155 56.4301 19.3613 56.4529 19.5117C56.4756 19.6621 56.4939 19.8193 56.5075 19.9834H56.5486C56.5759 19.7373 56.6124 19.5072 56.6579 19.293C56.7081 19.0788 56.7696 18.8669 56.8425 18.6572L58.2575 14.3574H60.4929L57.2595 22.9775C57.0635 23.5062 56.8083 23.946 56.4939 24.2969C56.1794 24.6523 55.8171 24.9189 55.407 25.0967C55.0014 25.2744 54.5547 25.3633 54.0671 25.3633C53.8301 25.3633 53.6251 25.3496 53.4519 25.3223C53.2787 25.2995 53.1306 25.2744 53.0075 25.2471V23.5928C53.1032 23.6156 53.224 23.6361 53.3698 23.6543C53.5157 23.6725 53.6684 23.6816 53.8279 23.6816C54.1195 23.6816 54.3702 23.6201 54.5798 23.4971C54.7894 23.374 54.9649 23.2077 55.1062 22.998C55.2475 22.793 55.3591 22.5674 55.4411 22.3213L55.5642 21.9453L52.529 14.3574ZM68.6616 14.3574V22H66.5698V15.9229H63.8012V22H61.7163V14.3574H68.6616ZM72.9885 14.3574V17.3789C72.9885 17.5339 72.9816 17.7298 72.9679 17.9668C72.9588 18.1992 72.9452 18.4362 72.9269 18.6777C72.9087 18.9193 72.8905 19.1357 72.8722 19.3271C72.854 19.5186 72.8403 19.6484 72.8312 19.7168L76.3586 14.3574H78.8674V22H76.8508V18.9512C76.8508 18.7005 76.8599 18.4248 76.8781 18.124C76.8963 17.8187 76.9168 17.5316 76.9396 17.2627C76.9624 16.9938 76.9784 16.791 76.9875 16.6543L73.4738 22H70.9718V14.3574H72.9885ZM87.5077 15.9229H85.0058V22H82.9208V15.9229H80.412V14.3574H87.5077V15.9229ZM91.1442 17.3105H92.6139C93.3977 17.3105 94.0449 17.3926 94.5553 17.5566C95.0657 17.7207 95.4462 17.9714 95.6969 18.3086C95.9475 18.6413 96.0729 19.0605 96.0729 19.5664C96.0729 20.0586 95.9589 20.487 95.7311 20.8516C95.5032 21.2161 95.1409 21.4987 94.6442 21.6992C94.1474 21.8997 93.498 22 92.6959 22H89.0592V14.3574H91.1442V17.3105ZM93.9879 19.5938C93.9879 19.2975 93.8694 19.0833 93.6324 18.9512C93.3955 18.819 93.0423 18.7529 92.5729 18.7529H91.1442V20.5576H92.6002C93.0058 20.5576 93.3385 20.4847 93.5983 20.3389C93.858 20.1885 93.9879 19.9401 93.9879 19.5938Z" fill="white"/>
</g>
<defs>
<filter id="filter0_d_1122_858" x="0" y="0" width="141" height="44" filterUnits="userSpaceOnUse" color-interpolation-filters="sRGB">
<feFlood flood-opacity="0" result="BackgroundImageFix"/>
<feColorMatrix in="SourceAlpha" type="matrix" values="0 0 0 0 0 0 0 0 0 0 0 0 0 0 0 0 0 0 127 0" result="hardAlpha"/>
<feOffset dy="4"/>
<feGaussianBlur stdDeviation="2"/>
<feComposite in2="hardAlpha" operator="out"/>
<feColorMatrix type="matrix" values="0 0 0 0 0 0 0 0 0 0 0 0 0 0 0 0 0 0 0.25 0"/>
<feBlend mode="normal" in2="BackgroundImageFix" result="effect1_dropShadow_1122_858"/>
<feBlend mode="normal" in="SourceGraphic" in2="effect1_dropShadow_1122_858" result="shape"/>
</filter>
</defs>
</svg>
