<svg width="80" height="77" viewBox="0 0 80 77" fill="none" xmlns="http://www.w3.org/2000/svg">
<ellipse cx="40" cy="38.5" rx="40" ry="38.5" fill="#FF9900"/>
<path d="M15 17.5625C15 17.1481 15.1745 16.7507 15.4851 16.4576C15.7957 16.1646 16.217 16 16.6563 16H21.625C21.9944 16.0001 22.3533 16.1167 22.6444 16.3313C22.9355 16.5459 23.1422 16.8462 23.2316 17.1844L24.5731 22.25H63.0313C63.2744 22.2502 63.5146 22.3009 63.7347 22.3986C63.9547 22.4962 64.1493 22.6384 64.3046 22.815C64.4598 22.9916 64.5719 23.1983 64.633 23.4204C64.694 23.6425 64.7024 23.8745 64.6577 24.1L59.6889 49.1C59.6179 49.4581 59.4165 49.7814 59.1195 50.0142C58.8225 50.2471 58.4486 50.3747 58.0625 50.375H28.25C27.8639 50.3747 27.49 50.2471 27.193 50.0142C26.896 49.7814 26.6946 49.4581 26.6236 49.1L21.6581 24.1469L20.3331 19.125H16.6563C16.217 19.125 15.7957 18.9604 15.4851 18.6674C15.1745 18.3743 15 17.9769 15 17.5625ZM25.2754 25.375L29.6247 47.25H56.6878L61.0371 25.375H25.2754ZM31.5625 50.375C29.8054 50.375 28.1203 51.0335 26.8779 52.2056C25.6355 53.3777 24.9375 54.9674 24.9375 56.625C24.9375 58.2826 25.6355 59.8723 26.8779 61.0444C28.1203 62.2165 29.8054 62.875 31.5625 62.875C33.3196 62.875 35.0047 62.2165 36.2471 61.0444C37.4895 59.8723 38.1875 58.2826 38.1875 56.625C38.1875 54.9674 37.4895 53.3777 36.2471 52.2056C35.0047 51.0335 33.3196 50.375 31.5625 50.375ZM54.75 50.375C52.9929 50.375 51.3079 51.0335 50.0654 52.2056C48.823 53.3777 48.125 54.9674 48.125 56.625C48.125 58.2826 48.823 59.8723 50.0654 61.0444C51.3079 62.2165 52.9929 62.875 54.75 62.875C56.5071 62.875 58.1922 62.2165 59.4346 61.0444C60.677 59.8723 61.375 58.2826 61.375 56.625C61.375 54.9674 60.677 53.3777 59.4346 52.2056C58.1922 51.0335 56.5071 50.375 54.75 50.375ZM31.5625 53.5C32.441 53.5 33.2836 53.8292 33.9048 54.4153C34.526 55.0013 34.875 55.7962 34.875 56.625C34.875 57.4538 34.526 58.2487 33.9048 58.8347C33.2836 59.4208 32.441 59.75 31.5625 59.75C30.684 59.75 29.8414 59.4208 29.2202 58.8347C28.599 58.2487 28.25 57.4538 28.25 56.625C28.25 55.7962 28.599 55.0013 29.2202 54.4153C29.8414 53.8292 30.684 53.5 31.5625 53.5ZM54.75 53.5C55.6285 53.5 56.4711 53.8292 57.0923 54.4153C57.7135 55.0013 58.0625 55.7962 58.0625 56.625C58.0625 57.4538 57.7135 58.2487 57.0923 58.8347C56.4711 59.4208 55.6285 59.75 54.75 59.75C53.8715 59.75 53.0289 59.4208 52.4077 58.8347C51.7865 58.2487 51.4375 57.4538 51.4375 56.625C51.4375 55.7962 51.7865 55.0013 52.4077 54.4153C53.0289 53.8292 53.8715 53.5 54.75 53.5Z" fill="white"/>
</svg>
