<svg width="80" height="77" viewBox="0 0 80 77" fill="none" xmlns="http://www.w3.org/2000/svg">
<ellipse cx="40" cy="38.5" rx="40" ry="38.5" fill="#FF9900"/>
<path d="M59.2174 51.3312C58.1674 48.6258 56.6436 46.1684 54.7309 44.0959C52.824 42.0174 50.5652 40.3602 48.079 39.2158C48.0568 39.2037 48.0345 39.1977 48.0122 39.1855C51.4801 36.4609 53.7345 32.0229 53.7345 27.0156C53.7345 18.7207 47.5558 12 39.9298 12C32.3038 12 26.1251 18.7207 26.1251 27.0156C26.1251 32.0229 28.3795 36.4609 31.8474 39.1916C31.8251 39.2037 31.8029 39.2098 31.7806 39.2219C29.2869 40.3662 27.0492 42.007 25.1288 44.102C23.2179 46.1761 21.6943 48.6331 20.6422 51.3373C19.6087 53.9847 19.0512 56.8231 19.0001 59.6988C18.9987 59.7634 19.0091 59.8277 19.0308 59.8879C19.0525 59.9481 19.0851 60.0029 19.1266 60.0492C19.1681 60.0955 19.2177 60.1322 19.2724 60.1573C19.3272 60.1824 19.386 60.1953 19.4455 60.1953H22.7853C23.0302 60.1953 23.225 59.9834 23.2306 59.723C23.3419 55.0488 25.0675 50.6713 28.1179 47.3533C31.2741 43.9203 35.4656 42.0312 39.9298 42.0312C44.3941 42.0312 48.5856 43.9203 51.7417 47.3533C54.7921 50.6713 56.5177 55.0488 56.629 59.723C56.6346 59.9895 56.8294 60.1953 57.0744 60.1953H60.4142C60.4736 60.1953 60.5325 60.1824 60.5872 60.1573C60.642 60.1322 60.6916 60.0955 60.7331 60.0492C60.7746 60.0029 60.8072 59.9481 60.8289 59.8879C60.8506 59.8277 60.861 59.7634 60.8595 59.6988C60.8038 56.8047 60.2528 53.9893 59.2174 51.3312ZM39.9298 37.4297C37.3748 37.4297 34.9702 36.3459 33.1611 34.3781C31.352 32.4104 30.3556 29.7947 30.3556 27.0156C30.3556 24.2365 31.352 21.6209 33.1611 19.6531C34.9702 17.6854 37.3748 16.6016 39.9298 16.6016C42.4848 16.6016 44.8895 17.6854 46.6986 19.6531C48.5077 21.6209 49.504 24.2365 49.504 27.0156C49.504 29.7947 48.5077 32.4104 46.6986 34.3781C44.8895 36.3459 42.4848 37.4297 39.9298 37.4297Z" fill="white"/>
</svg>
