<svg width="203" height="61" viewBox="0 0 203 61" fill="none" xmlns="http://www.w3.org/2000/svg">
<g filter="url(#filter0_b_828_9977)">
<rect width="203" height="61" rx="30.5" fill="#FF9900" fill-opacity="0.01"/>
</g>
<rect width="203" height="61" rx="30.5" fill="#FF9900"/>
<path d="M67.7969 24.7227H72.2402C74.1413 24.7227 75.5801 24.9896 76.5566 25.5234C77.5332 26.0573 78.0215 26.9948 78.0215 28.3359C78.0215 28.8763 77.9336 29.3646 77.7578 29.8008C77.5885 30.237 77.3411 30.5951 77.0156 30.875C76.6901 31.1549 76.293 31.3372 75.8242 31.4219V31.5195C76.2995 31.6172 76.7292 31.7865 77.1133 32.0273C77.4974 32.2617 77.8034 32.6068 78.0312 33.0625C78.2656 33.5117 78.3828 34.1107 78.3828 34.8594C78.3828 35.7253 78.1712 36.4674 77.748 37.0859C77.3249 37.7044 76.7194 38.1797 75.9316 38.5117C75.1504 38.8372 74.2194 39 73.1387 39H67.7969V24.7227ZM70.8242 30.377H72.582C73.4609 30.377 74.0697 30.2402 74.4082 29.9668C74.7467 29.6868 74.916 29.2767 74.916 28.7363C74.916 28.1895 74.7142 27.7988 74.3105 27.5645C73.9134 27.3236 73.2819 27.2031 72.416 27.2031H70.8242V30.377ZM70.8242 32.7793V36.5H72.7969C73.7083 36.5 74.3431 36.3242 74.7012 35.9727C75.0592 35.6211 75.2383 35.1491 75.2383 34.5566C75.2383 34.2051 75.1602 33.8958 75.0039 33.6289C74.8477 33.362 74.584 33.1536 74.2129 33.0039C73.8483 32.8542 73.3438 32.7793 72.6992 32.7793H70.8242ZM91.0447 33.5215C91.0447 34.4329 90.921 35.2402 90.6736 35.9434C90.4327 36.6465 90.0779 37.2422 89.6091 37.7305C89.1469 38.2122 88.587 38.5768 87.9294 38.8242C87.2784 39.0716 86.5427 39.1953 85.7224 39.1953C84.9542 39.1953 84.2478 39.0716 83.6032 38.8242C82.9652 38.5768 82.4086 38.2122 81.9333 37.7305C81.4646 37.2422 81.1 36.6465 80.8396 35.9434C80.5857 35.2402 80.4587 34.4329 80.4587 33.5215C80.4587 32.3105 80.6736 31.2852 81.1032 30.4453C81.5329 29.6055 82.1449 28.9674 82.9392 28.5312C83.7335 28.0951 84.6807 27.877 85.781 27.877C86.8031 27.877 87.7081 28.0951 88.4958 28.5312C89.2901 28.9674 89.9118 29.6055 90.3611 30.4453C90.8168 31.2852 91.0447 32.3105 91.0447 33.5215ZM83.4958 33.5215C83.4958 34.2376 83.5739 34.8398 83.7302 35.3281C83.8864 35.8164 84.1306 36.1842 84.4626 36.4316C84.7947 36.679 85.2276 36.8027 85.7614 36.8027C86.2888 36.8027 86.7152 36.679 87.0407 36.4316C87.3728 36.1842 87.6137 35.8164 87.7634 35.3281C87.9197 34.8398 87.9978 34.2376 87.9978 33.5215C87.9978 32.7988 87.9197 32.1999 87.7634 31.7246C87.6137 31.2428 87.3728 30.8815 87.0407 30.6406C86.7087 30.3997 86.2758 30.2793 85.7419 30.2793C84.9542 30.2793 84.3812 30.5495 84.0232 31.0898C83.6716 31.6302 83.4958 32.4408 83.4958 33.5215ZM96.5092 28.082V32.3984C96.5092 32.6198 96.4995 32.8997 96.4799 33.2383C96.4669 33.5703 96.4474 33.9089 96.4213 34.2539C96.3953 34.599 96.3693 34.9082 96.3432 35.1816C96.3172 35.4551 96.2976 35.6406 96.2846 35.7383L101.324 28.082H104.908V39H102.027V34.6445C102.027 34.2865 102.04 33.8926 102.066 33.4629C102.092 33.0267 102.121 32.6165 102.154 32.2324C102.186 31.8483 102.209 31.5586 102.222 31.3633L97.2026 39H93.6284V28.082H96.5092ZM104.087 23.3848C104.016 24.0749 103.82 24.6836 103.501 25.2109C103.182 25.7383 102.684 26.1484 102.007 26.4414C101.33 26.7344 100.419 26.8809 99.2729 26.8809C98.0945 26.8809 97.1765 26.7409 96.519 26.4609C95.8614 26.1745 95.3927 25.7708 95.1127 25.25C94.8328 24.7227 94.6635 24.1009 94.6049 23.3848H97.2709C97.3295 24.1204 97.5151 24.6087 97.8276 24.8496C98.1401 25.084 98.6414 25.2012 99.3315 25.2012C99.9044 25.2012 100.373 25.071 100.738 24.8105C101.102 24.5501 101.32 24.0749 101.392 23.3848H104.087ZM117.198 30.3184H113.624V39H110.646V30.3184H107.062V28.082H117.198V30.3184ZM122.243 28.082V32.3984C122.243 32.6198 122.233 32.8997 122.214 33.2383C122.201 33.5703 122.181 33.9089 122.155 34.2539C122.129 34.599 122.103 34.9082 122.077 35.1816C122.051 35.4551 122.031 35.6406 122.018 35.7383L127.058 28.082H130.642V39H127.761V34.6445C127.761 34.2865 127.774 33.8926 127.8 33.4629C127.826 33.0267 127.855 32.6165 127.888 32.2324C127.92 31.8483 127.943 31.5586 127.956 31.3633L122.936 39H119.362V28.082H122.243Z" fill="white"/>
<defs>
<filter id="filter0_b_828_9977" x="-27.1828" y="-27.1828" width="257.366" height="115.366" filterUnits="userSpaceOnUse" color-interpolation-filters="sRGB">
<feFlood flood-opacity="0" result="BackgroundImageFix"/>
<feGaussianBlur in="BackgroundImageFix" stdDeviation="13.5914"/>
<feComposite in2="SourceAlpha" operator="in" result="effect1_backgroundBlur_828_9977"/>
<feBlend mode="normal" in="SourceGraphic" in2="effect1_backgroundBlur_828_9977" result="shape"/>
</filter>
</defs>
</svg>
