<svg width="362" height="122" viewBox="0 0 362 122" fill="none" xmlns="http://www.w3.org/2000/svg">
<rect x="142.06" y="18.4746" width="219" height="57" fill="#FF9900"/>
<path d="M34.7693 119.994C33.9266 117.806 37.6405 114.219 40.7492 114.219C41.8098 114.219 44.5048 112.983 46.738 111.473C50.6047 108.859 51.5567 108.728 66.6883 108.728C80.9478 108.728 82.7807 108.944 84.5531 110.84C85.6394 112.002 88.8371 113.532 91.6593 114.24C96.9097 115.557 99.0418 118.327 96.6444 120.716C95.8443 121.513 85.5431 121.907 65.4776 121.907C38.0072 121.907 35.4443 121.747 34.7693 119.994ZM2.20437 99.9415C0.0717695 97.8165 0 96.2807 0 52.7681C0 22.1445 0.390527 6.93711 1.22373 5.11494C1.89678 3.64303 3.65605 1.89002 5.13324 1.21937C6.99473 0.374231 25.9266 0 66.8189 0H125.819C128.942 0.779676 131.061 2.95975 132.262 6.42059V51.8757C132.262 96.1022 132.202 97.3958 130.015 99.7345L127.768 102.138H66.0882C5.87832 102.138 4.35622 102.086 2.20437 99.9415ZM73.8465 92.7527C73.8465 90.0012 73.7286 89.962 66.4067 90.2816C59.6468 90.5767 58.9348 90.8321 58.6147 93.0774C58.278 95.4401 58.6044 95.5485 66.0545 95.5485C73.6684 95.5485 73.8465 95.4846 73.8465 92.7527ZM124.547 45.0286V7.68782H66.1312H7.7153V45.0286V82.3694H66.1312H124.547V45.0286ZM79.6823 72.3674C75.2057 71.0775 72.7443 67.5994 72.7443 62.5635C72.7443 60.0589 71.8878 57.7058 70.395 56.1092L68.0457 53.5966L71.2894 50.3645C74.5251 47.1403 74.5396 47.1375 77.2207 49.2162C78.699 50.3622 81.8223 51.6511 84.1614 52.0803C89.0854 52.9838 93.6858 57.3471 93.6858 61.1137C93.6858 64.269 93.1666 64.3154 89.5532 61.4832C87.0932 59.555 86.4345 59.4603 84.4803 60.7532C80.2981 63.5202 79.7513 65.5518 82.4253 68.388C84.8133 70.9209 85.689 73.6817 84.0417 73.4843C83.587 73.4298 81.6253 72.9272 79.6823 72.3674ZM41.0261 70.7754C36.349 67.5111 37.7059 63.376 46.3136 54.6619C52.2594 48.6425 54.3518 47.1292 55.3515 48.1254C56.067 48.8383 57.0811 49.4216 57.6051 49.4216C58.1291 49.4216 62.7418 45.3798 67.8555 40.4397C75.5371 33.0189 77.1537 30.8715 77.1569 28.0843C77.1602 25.1329 77.9026 24.3121 83.0902 21.5239C92.8121 16.2988 95.0952 19.2127 89.2444 29.3784C86.3634 34.3842 85.4752 35.1443 82.507 35.1443C79.7144 35.1443 77.3942 36.7917 69.8415 44.1374C63.6074 50.2007 60.9582 53.4925 61.7098 54.2414C63.9383 56.4619 62.6848 58.6952 55.3848 65.5109C47.6486 72.7339 45.1466 73.6512 41.0261 70.7754ZM54.5582 40.6356C53.461 39.4275 51.6322 38.4391 50.4943 38.4391C46.0341 38.4391 40.7112 35.2313 39.1902 31.6269C37.2675 27.0703 38.0509 25.7624 41.3953 27.9459C45.2252 30.4464 48.35 30.0761 49.7783 26.9523C50.765 24.7945 50.6495 23.6985 49.2036 21.4997C46.8327 17.894 46.9028 17.5721 50.0593 17.5721C55.7902 17.5721 57.9338 20.1906 60.5855 30.4303C61.2438 32.972 62.3055 35.3737 62.9449 35.7675C63.6557 36.2052 62.9215 37.7171 61.0555 39.6578C57.429 43.4296 57.1358 43.4737 54.5582 40.6356Z" fill="#00509F"/>
<path d="M154.896 67.284C153.176 65.5702 154.244 62.3768 156.871 61.3817C159.608 60.3447 159.627 60.2461 159.627 46.5552C159.627 32.8643 159.608 32.7656 156.871 31.7287C155.184 31.0896 154.116 29.8225 154.116 28.4611C154.116 26.4401 154.819 26.2374 161.831 26.2374C169.326 26.2374 169.546 26.3158 169.546 28.983C169.546 31.0096 168.961 31.7287 167.31 31.7287C165.16 31.7287 165.085 32.2908 165.381 46.2806C165.682 60.5418 165.739 60.8397 168.233 61.192C170.274 61.4802 170.711 62.1329 170.438 64.4868C170.112 67.2964 169.789 67.4358 162.886 67.7416C158.92 67.9174 155.325 67.7115 154.896 67.284ZM179.098 67.2391C178.694 66.8364 178.364 57.4463 178.364 46.3721V26.2374H181.642H184.921L185.224 43.535L185.528 60.8325L192.968 61.1573C200.4 61.4817 200.407 61.4852 200.407 64.7266V67.9712H190.12C184.462 67.9712 179.503 67.6418 179.098 67.2391ZM216.06 67.9712C215.655 67.5685 216.292 59.7068 215.468 49.85L214.736 31.7287H210.327C206.359 31.7287 205.918 31.4541 205.918 28.983V26.2374H217.491C229.025 26.2374 229.064 26.2466 229.064 28.9167C229.064 31.2201 228.484 31.6439 224.931 31.937L220.798 32.2778L220.495 50.1245C220.217 66.4981 221.388 68.1083 219.56 68.1083C218.463 68.1083 216.464 68.3739 216.06 67.9712ZM236.78 47.1043V26.2374H250.63H264.481L264.132 29.2576L263.783 32.2778L253.037 32.5922L242.29 32.9065V37.0401C242.29 42.8971 243.732 43.8095 252.982 43.8095C260.829 43.8095 261.028 43.8772 261.028 46.5552C261.028 49.2193 260.801 49.3008 253.402 49.3008C243.439 49.3008 242.29 49.8144 242.29 54.2707C242.29 61.1876 242.61 61.3817 253.981 61.3817H264.334V64.6764V67.9712H250.557H236.78V47.1043ZM281.812 65.2131C275.663 62.0222 270.947 53.8843 270.947 46.465C270.947 40.4704 275.975 30.8063 280.448 28.2032C287.202 24.273 298.988 24.643 304.598 28.9613C306.743 30.6125 306.739 30.6564 304.263 32.7495C302.006 34.6577 301.461 34.7126 298.752 33.3047C292.315 29.9583 283.891 31.9577 279.903 37.7787C277.687 41.0139 277.366 42.5576 277.808 47.8656C278.275 53.4746 278.771 54.5133 282.537 57.7572C285.986 60.7274 287.663 61.3817 291.827 61.3817C294.701 61.3817 298.003 60.6185 299.426 59.6249C301.749 58.0038 302.109 58.017 304.08 59.7951C305.256 60.855 306.217 62.0412 306.217 62.4313C306.217 62.8214 303.972 64.2274 301.228 65.5559C294.748 68.6931 288.298 68.5792 281.812 65.2131ZM315.816 67.2854C315.386 66.8572 315.035 57.4463 315.035 46.3721V26.2374H318.295H321.555L321.877 34.7489L322.199 43.2604H331.016H339.834L340.156 34.7489L340.478 26.2374H343.762H347.047L346.747 46.8297L346.447 67.4221L343.462 67.7652L340.476 68.1083L340.155 58.9792L339.834 49.85H331.016H322.199L321.648 58.636C321.159 66.4297 320.843 67.4583 318.847 67.743C317.61 67.9195 316.246 67.7136 315.816 67.2854Z" fill="white"/>
</svg>
