<svg width="203" height="61" viewBox="0 0 203 61" fill="none" xmlns="http://www.w3.org/2000/svg">
<g filter="url(#filter0_b_1162_867)">
<rect width="203" height="61" rx="30.5" fill="#FF9900" fill-opacity="0.01"/>
</g>
<rect width="203" height="61" rx="30.5" fill="#FF9900"/>
<path d="M57.7559 31.8418C57.7559 32.9421 57.6191 33.9447 57.3457 34.8496C57.0723 35.748 56.6556 36.5228 56.0957 37.1738C55.5423 37.8249 54.8392 38.3262 53.9863 38.6777C53.1335 39.0228 52.1243 39.1953 50.959 39.1953C49.7936 39.1953 48.7845 39.0228 47.9316 38.6777C47.0788 38.3262 46.3724 37.8249 45.8125 37.1738C45.2591 36.5228 44.8457 35.7448 44.5723 34.8398C44.2988 33.9349 44.1621 32.929 44.1621 31.8223C44.1621 30.3444 44.403 29.0586 44.8848 27.9648C45.373 26.8646 46.1217 26.0117 47.1309 25.4062C48.14 24.8008 49.4225 24.498 50.9785 24.498C52.528 24.498 53.8008 24.8008 54.7969 25.4062C55.7995 26.0117 56.5417 26.8646 57.0234 27.9648C57.5117 29.0651 57.7559 30.3574 57.7559 31.8418ZM47.3359 31.8418C47.3359 32.8379 47.4596 33.6973 47.707 34.4199C47.9609 35.1361 48.3548 35.6895 48.8887 36.0801C49.4225 36.4642 50.1126 36.6562 50.959 36.6562C51.8184 36.6562 52.515 36.4642 53.0488 36.0801C53.5827 35.6895 53.9701 35.1361 54.2109 34.4199C54.4583 33.6973 54.582 32.8379 54.582 31.8418C54.582 30.3444 54.3021 29.166 53.7422 28.3066C53.1823 27.4473 52.2611 27.0176 50.9785 27.0176C50.1257 27.0176 49.429 27.2129 48.8887 27.6035C48.3548 27.9876 47.9609 28.541 47.707 29.2637C47.4596 29.9798 47.3359 30.8392 47.3359 31.8418ZM68.5818 23.8047V28.0234C69.8448 28.1276 70.9092 28.4238 71.7751 28.9121C72.641 29.3939 73.2986 30.0319 73.7478 30.8262C74.197 31.6139 74.4216 32.5189 74.4216 33.541C74.4216 34.5566 74.2035 35.4616 73.7673 36.2559C73.3376 37.0501 72.6898 37.6914 71.8239 38.1797C70.9646 38.668 69.8838 38.9674 68.5818 39.0781V43.8047H65.8181V39.0781C64.5616 38.9609 63.4971 38.6582 62.6247 38.1699C61.7523 37.6751 61.085 37.0339 60.6228 36.2461C60.167 35.4518 59.9392 34.5501 59.9392 33.541C59.9392 32.4993 60.1508 31.5814 60.5739 30.7871C60.9971 29.9863 61.6417 29.3483 62.5075 28.873C63.3799 28.3913 64.4835 28.1081 65.8181 28.0234V23.8047H68.5818ZM65.8181 30.2598C65.2387 30.3379 64.7374 30.5267 64.3142 30.8262C63.8975 31.1257 63.5753 31.5098 63.3474 31.9785C63.1195 32.4408 63.0056 32.9616 63.0056 33.541C63.0056 34.1335 63.113 34.6641 63.3279 35.1328C63.5492 35.5951 63.8682 35.9727 64.2849 36.2656C64.7081 36.5586 65.2191 36.7441 65.8181 36.8223V30.2598ZM68.5818 30.2988V36.8223C69.1742 36.7441 69.6755 36.5586 70.0857 36.2656C70.5023 35.9727 70.8181 35.5951 71.0329 35.1328C71.2543 34.6641 71.365 34.1335 71.365 33.541C71.365 32.6686 71.1143 31.9395 70.613 31.3535C70.1182 30.7611 69.4411 30.4095 68.5818 30.2988ZM86.937 33.5215C86.937 34.4329 86.8133 35.2402 86.5659 35.9434C86.325 36.6465 85.9702 37.2422 85.5014 37.7305C85.0392 38.2122 84.4793 38.5768 83.8217 38.8242C83.1707 39.0716 82.435 39.1953 81.6147 39.1953C80.8465 39.1953 80.1401 39.0716 79.4956 38.8242C78.8575 38.5768 78.3009 38.2122 77.8256 37.7305C77.3569 37.2422 76.9923 36.6465 76.7319 35.9434C76.478 35.2402 76.351 34.4329 76.351 33.5215C76.351 32.3105 76.5659 31.2852 76.9956 30.4453C77.4252 29.6055 78.0372 28.9674 78.8315 28.5312C79.6258 28.0951 80.573 27.877 81.6733 27.877C82.6954 27.877 83.6004 28.0951 84.3881 28.5312C85.1824 28.9674 85.8041 29.6055 86.2534 30.4453C86.7091 31.2852 86.937 32.3105 86.937 33.5215ZM79.3881 33.5215C79.3881 34.2376 79.4663 34.8398 79.6225 35.3281C79.7788 35.8164 80.0229 36.1842 80.3549 36.4316C80.687 36.679 81.1199 36.8027 81.6538 36.8027C82.1811 36.8027 82.6075 36.679 82.9331 36.4316C83.2651 36.1842 83.506 35.8164 83.6557 35.3281C83.812 34.8398 83.8901 34.2376 83.8901 33.5215C83.8901 32.7988 83.812 32.1999 83.6557 31.7246C83.506 31.2428 83.2651 30.8815 82.9331 30.6406C82.601 30.3997 82.1681 30.2793 81.6342 30.2793C80.8465 30.2793 80.2736 30.5495 79.9155 31.0898C79.5639 31.6302 79.3881 32.4408 79.3881 33.5215ZM95.5949 27.877C96.8254 27.877 97.8182 28.3555 98.5734 29.3125C99.3351 30.2695 99.716 31.6725 99.716 33.5215C99.716 34.7585 99.537 35.8001 99.1789 36.6465C98.8208 37.4863 98.326 38.1211 97.6945 38.5508C97.063 38.9805 96.3371 39.1953 95.5168 39.1953C94.9894 39.1953 94.537 39.1302 94.1593 39C93.7817 38.8633 93.4595 38.6908 93.1926 38.4824C92.9256 38.2676 92.6945 38.0397 92.4992 37.7988H92.3429C92.395 38.0592 92.4341 38.3262 92.4601 38.5996C92.4862 38.873 92.4992 39.14 92.4992 39.4004V43.8047H89.5207V28.082H91.9426L92.3625 29.498H92.4992C92.6945 29.2051 92.9321 28.9349 93.2121 28.6875C93.492 28.4401 93.8273 28.2448 94.2179 28.1016C94.6151 27.9518 95.0741 27.877 95.5949 27.877ZM94.6379 30.2598C94.117 30.2598 93.7036 30.3672 93.3976 30.582C93.0916 30.7969 92.867 31.1191 92.7238 31.5488C92.5871 31.9785 92.5122 32.5221 92.4992 33.1797V33.502C92.4992 34.2051 92.5643 34.8008 92.6945 35.2891C92.8312 35.7773 93.0558 36.1484 93.3683 36.4023C93.6873 36.6562 94.1235 36.7832 94.6769 36.7832C95.1327 36.7832 95.507 36.6562 95.8 36.4023C96.0929 36.1484 96.311 35.7773 96.4543 35.2891C96.604 34.7943 96.6789 34.1921 96.6789 33.4824C96.6789 32.4147 96.5129 31.6107 96.1808 31.0703C95.8488 30.5299 95.3345 30.2598 94.6379 30.2598ZM116.059 28.082V39H113.276V33.6387C113.276 33.1113 113.286 32.5938 113.306 32.0859C113.325 31.5781 113.354 31.1094 113.393 30.6797H113.335L110.317 39H108.081L105.015 30.6602H104.936C104.989 31.0964 105.024 31.5651 105.044 32.0664C105.063 32.5677 105.073 33.1178 105.073 33.7168V39H102.3V28.082H106.518L109.233 35.4844L111.997 28.082H116.059ZM122.198 28.082V32.3984C122.198 32.6198 122.188 32.8997 122.169 33.2383C122.156 33.5703 122.136 33.9089 122.11 34.2539C122.084 34.599 122.058 34.9082 122.032 35.1816C122.006 35.4551 121.986 35.6406 121.973 35.7383L127.012 28.082H130.596V39H127.715V34.6445C127.715 34.2865 127.728 33.8926 127.755 33.4629C127.781 33.0267 127.81 32.6165 127.842 32.2324C127.875 31.8483 127.898 31.5586 127.911 31.3633L122.891 39H119.317V28.082H122.198ZM142.887 30.3184H139.313V39H136.334V30.3184H132.75V28.082H142.887V30.3184ZM148.029 32.3008H150.129C151.249 32.3008 152.173 32.418 152.902 32.6523C153.632 32.8867 154.175 33.2448 154.533 33.7266C154.891 34.2018 155.07 34.8008 155.07 35.5234C155.07 36.2266 154.908 36.8385 154.582 37.3594C154.257 37.8802 153.739 38.2839 153.029 38.5703C152.32 38.8568 151.392 39 150.246 39H145.051V28.082H148.029V32.3008ZM152.092 35.5625C152.092 35.1393 151.923 34.8333 151.584 34.6445C151.246 34.4557 150.741 34.3613 150.07 34.3613H148.029V36.9395H150.109C150.689 36.9395 151.164 36.8353 151.535 36.627C151.906 36.4121 152.092 36.0573 152.092 35.5625Z" fill="white"/>
<defs>
<filter id="filter0_b_1162_867" x="-27.1828" y="-27.1828" width="257.366" height="115.366" filterUnits="userSpaceOnUse" color-interpolation-filters="sRGB">
<feFlood flood-opacity="0" result="BackgroundImageFix"/>
<feGaussianBlur in="BackgroundImageFix" stdDeviation="13.5914"/>
<feComposite in2="SourceAlpha" operator="in" result="effect1_backgroundBlur_1162_867"/>
<feBlend mode="normal" in="SourceGraphic" in2="effect1_backgroundBlur_1162_867" result="shape"/>
</filter>
</defs>
</svg>
