<svg width="153" height="23" viewBox="0 0 153 23" fill="none" xmlns="http://www.w3.org/2000/svg">
<path d="M13 1.4502L15.4493 8.11869L15.5697 8.4463H15.9187H23.661L17.4522 12.4368L17.115 12.6535L17.2532 13.0298L19.6582 19.5775L13.2703 15.472L13 15.2982L12.7297 15.472L6.34183 19.5775L8.74682 13.0298L8.88502 12.6535L8.54781 12.4368L2.339 8.4463H10.0813H10.4303L10.5507 8.11869L13 1.4502Z" fill="#DC9326" stroke="black"/>
<path d="M45 1.4502L47.4493 8.11869L47.5697 8.4463H47.9187H55.661L49.4522 12.4368L49.115 12.6535L49.2532 13.0298L51.6582 19.5775L45.2703 15.472L45 15.2982L44.7297 15.472L38.3418 19.5775L40.7468 13.0298L40.885 12.6535L40.5478 12.4368L34.339 8.4463H42.0813H42.4303L42.5507 8.11869L45 1.4502Z" fill="#DC9326" stroke="black"/>
<path d="M76.5 1.40298L79.0638 8.1245L79.1865 8.4463H79.5309H87.5813L81.141 12.4322L80.7898 12.6496L80.937 13.0356L83.441 19.6004L76.7631 15.4674L76.5 15.3046L76.2369 15.4674L69.559 19.6004L72.063 13.0356L72.2102 12.6496L71.859 12.4322L65.4187 8.4463H73.4691H73.8135L73.9362 8.1245L76.5 1.40298Z" fill="#DC9326" stroke="black"/>
<path d="M108 1.4502L110.449 8.11869L110.57 8.4463H110.919H118.661L112.452 12.4368L112.115 12.6535L112.253 13.0298L114.658 19.5775L108.27 15.472L108 15.2982L107.73 15.472L101.342 19.5775L103.747 13.0298L103.885 12.6535L103.548 12.4368L97.339 8.4463H105.081H105.43L105.551 8.11869L108 1.4502Z" fill="#DC9326" stroke="black"/>
<path d="M140 1.4502L142.449 8.11869L142.57 8.4463H142.919H150.661L144.452 12.4368L144.115 12.6535L144.253 13.0298L146.658 19.5775L140.27 15.472L140 15.2982L139.73 15.472L133.342 19.5775L135.747 13.0298L135.885 12.6535L135.548 12.4368L129.339 8.4463H137.081H137.43L137.551 8.11869L140 1.4502Z" fill="white" stroke="black"/>
</svg>
